<mxfile host="app.diagrams.net" agent="Mozilla/5.0 (Windows NT 10.0; Win64; x64) AppleWebKit/537.36 (KHTML, like Gecko) Chrome/131.0.0.0 Safari/537.36 Edg/131.0.0.0" version="26.0.5">
  <diagram name="Page-1" id="iVaYScoHA13Lnxc64W_j">
    <mxGraphModel dx="1042" dy="565" grid="1" gridSize="10" guides="1" tooltips="1" connect="1" arrows="1" fold="1" page="1" pageScale="1" pageWidth="850" pageHeight="1100" math="0" shadow="0">
      <root>
        <mxCell id="0" />
        <mxCell id="1" parent="0" />
        <mxCell id="KVJtW0NhU-GleRzyIVNa-34" style="rounded=0;orthogonalLoop=1;jettySize=auto;html=1;exitX=0.5;exitY=0.5;exitDx=0;exitDy=0;exitPerimeter=0;entryX=0;entryY=0.5;entryDx=0;entryDy=0;" edge="1" parent="1" source="KVJtW0NhU-GleRzyIVNa-1" target="KVJtW0NhU-GleRzyIVNa-29">
          <mxGeometry relative="1" as="geometry" />
        </mxCell>
        <mxCell id="KVJtW0NhU-GleRzyIVNa-35" style="rounded=0;orthogonalLoop=1;jettySize=auto;html=1;exitX=0.5;exitY=0.5;exitDx=0;exitDy=0;exitPerimeter=0;entryX=0;entryY=0.5;entryDx=0;entryDy=0;" edge="1" parent="1" source="KVJtW0NhU-GleRzyIVNa-1" target="KVJtW0NhU-GleRzyIVNa-3">
          <mxGeometry relative="1" as="geometry" />
        </mxCell>
        <mxCell id="KVJtW0NhU-GleRzyIVNa-36" style="rounded=0;orthogonalLoop=1;jettySize=auto;html=1;exitX=0.5;exitY=0.5;exitDx=0;exitDy=0;exitPerimeter=0;" edge="1" parent="1" source="KVJtW0NhU-GleRzyIVNa-1" target="KVJtW0NhU-GleRzyIVNa-16">
          <mxGeometry relative="1" as="geometry" />
        </mxCell>
        <mxCell id="KVJtW0NhU-GleRzyIVNa-1" value="Khách hàng" style="shape=umlActor;html=1;verticalLabelPosition=top;verticalAlign=bottom;align=center;labelPosition=center;" vertex="1" parent="1">
          <mxGeometry x="280" y="335" width="30" height="60" as="geometry" />
        </mxCell>
        <mxCell id="KVJtW0NhU-GleRzyIVNa-3" value="Xem sản phẩm" style="ellipse;whiteSpace=wrap;html=1;" vertex="1" parent="1">
          <mxGeometry x="400" y="570" width="140" height="70" as="geometry" />
        </mxCell>
        <mxCell id="KVJtW0NhU-GleRzyIVNa-16" value="Tìm kiếm sản phẩm" style="ellipse;whiteSpace=wrap;html=1;" vertex="1" parent="1">
          <mxGeometry x="400" y="480" width="140" height="70" as="geometry" />
        </mxCell>
        <mxCell id="KVJtW0NhU-GleRzyIVNa-17" value="Đặt hàng" style="ellipse;whiteSpace=wrap;html=1;" vertex="1" parent="1">
          <mxGeometry x="480" y="300" width="140" height="70" as="geometry" />
        </mxCell>
        <mxCell id="KVJtW0NhU-GleRzyIVNa-21" value="Thêm vào giỏ hàng" style="ellipse;whiteSpace=wrap;html=1;" vertex="1" parent="1">
          <mxGeometry x="740" y="410" width="140" height="70" as="geometry" />
        </mxCell>
        <mxCell id="KVJtW0NhU-GleRzyIVNa-23" value="Thanh toán" style="ellipse;whiteSpace=wrap;html=1;" vertex="1" parent="1">
          <mxGeometry x="460" y="390" width="140" height="70" as="geometry" />
        </mxCell>
        <mxCell id="KVJtW0NhU-GleRzyIVNa-29" value="Đăng nhập" style="ellipse;whiteSpace=wrap;html=1;" vertex="1" parent="1">
          <mxGeometry x="710" y="170" width="140" height="70" as="geometry" />
        </mxCell>
        <mxCell id="KVJtW0NhU-GleRzyIVNa-38" style="rounded=0;orthogonalLoop=1;jettySize=auto;html=1;exitX=0.5;exitY=0.5;exitDx=0;exitDy=0;exitPerimeter=0;entryX=0;entryY=0.5;entryDx=0;entryDy=0;" edge="1" parent="1" source="KVJtW0NhU-GleRzyIVNa-1" target="KVJtW0NhU-GleRzyIVNa-17">
          <mxGeometry relative="1" as="geometry">
            <mxPoint x="305" y="375" as="sourcePoint" />
            <mxPoint x="410" y="615" as="targetPoint" />
          </mxGeometry>
        </mxCell>
        <mxCell id="KVJtW0NhU-GleRzyIVNa-41" value="&amp;lt;&amp;lt;include&amp;gt;&amp;gt;" style="edgeStyle=none;html=1;endArrow=open;verticalAlign=bottom;dashed=1;labelBackgroundColor=none;rounded=0;exitX=1;exitY=0.5;exitDx=0;exitDy=0;entryX=0;entryY=0.5;entryDx=0;entryDy=0;" edge="1" parent="1" source="KVJtW0NhU-GleRzyIVNa-23" target="KVJtW0NhU-GleRzyIVNa-21">
          <mxGeometry width="160" relative="1" as="geometry">
            <mxPoint x="580" y="460" as="sourcePoint" />
            <mxPoint x="740" y="460" as="targetPoint" />
          </mxGeometry>
        </mxCell>
        <mxCell id="KVJtW0NhU-GleRzyIVNa-42" value="&amp;lt;&amp;lt;include&amp;gt;&amp;gt;" style="edgeStyle=none;html=1;endArrow=open;verticalAlign=top;dashed=1;labelBackgroundColor=none;rounded=0;exitX=0.5;exitY=0;exitDx=0;exitDy=0;entryX=0;entryY=0.5;entryDx=0;entryDy=0;labelPosition=center;verticalLabelPosition=bottom;align=center;" edge="1" parent="1" source="KVJtW0NhU-GleRzyIVNa-17" target="KVJtW0NhU-GleRzyIVNa-29">
          <mxGeometry width="160" relative="1" as="geometry">
            <mxPoint x="769" y="350" as="sourcePoint" />
            <mxPoint x="870" y="430" as="targetPoint" />
          </mxGeometry>
        </mxCell>
        <mxCell id="KVJtW0NhU-GleRzyIVNa-43" style="rounded=0;orthogonalLoop=1;jettySize=auto;html=1;exitX=0.5;exitY=0.5;exitDx=0;exitDy=0;exitPerimeter=0;entryX=0;entryY=0.5;entryDx=0;entryDy=0;" edge="1" parent="1" source="KVJtW0NhU-GleRzyIVNa-1" target="KVJtW0NhU-GleRzyIVNa-23">
          <mxGeometry relative="1" as="geometry">
            <mxPoint x="305" y="375" as="sourcePoint" />
            <mxPoint x="490" y="345" as="targetPoint" />
          </mxGeometry>
        </mxCell>
        <mxCell id="KVJtW0NhU-GleRzyIVNa-44" value="&amp;lt;&amp;lt;include&amp;gt;&amp;gt;" style="edgeStyle=none;html=1;endArrow=open;verticalAlign=bottom;dashed=1;labelBackgroundColor=none;rounded=0;exitX=1;exitY=0.5;exitDx=0;exitDy=0;entryX=0.5;entryY=1;entryDx=0;entryDy=0;" edge="1" parent="1" source="KVJtW0NhU-GleRzyIVNa-23" target="KVJtW0NhU-GleRzyIVNa-29">
          <mxGeometry width="160" relative="1" as="geometry">
            <mxPoint x="589" y="460" as="sourcePoint" />
            <mxPoint x="870" y="430" as="targetPoint" />
          </mxGeometry>
        </mxCell>
        <mxCell id="KVJtW0NhU-GleRzyIVNa-45" value="&amp;lt;&amp;lt;include&amp;gt;&amp;gt;" style="edgeStyle=none;html=1;endArrow=open;verticalAlign=bottom;dashed=1;labelBackgroundColor=none;rounded=0;exitX=1;exitY=0.5;exitDx=0;exitDy=0;entryX=0.5;entryY=0;entryDx=0;entryDy=0;" edge="1" parent="1" source="KVJtW0NhU-GleRzyIVNa-17" target="KVJtW0NhU-GleRzyIVNa-21">
          <mxGeometry width="160" relative="1" as="geometry">
            <mxPoint x="560" y="310" as="sourcePoint" />
            <mxPoint x="660" y="185" as="targetPoint" />
          </mxGeometry>
        </mxCell>
      </root>
    </mxGraphModel>
  </diagram>
</mxfile>
